<svg width="186" height="55" viewBox="0 0 186 55" fill="none" xmlns="http://www.w3.org/2000/svg">
<rect y="0.542282" width="181.662" height="54.2274" rx="27.1137" fill="#FF0000"/>
<path d="M34.752 33.726V19.9078H36.4253V26.0612H43.7932V19.9078H45.4665V33.726H43.7932V27.5456H36.4253V33.726H34.752ZM48.6006 33.726V23.3623H50.1929V33.726H48.6006ZM49.4102 21.635C49.0999 21.635 48.8322 21.5293 48.6073 21.3179C48.3869 21.1065 48.2767 20.8524 48.2767 20.5555C48.2767 20.2586 48.3869 20.0045 48.6073 19.7931C48.8322 19.5817 49.0999 19.476 49.4102 19.476C49.7206 19.476 49.986 19.5817 50.2064 19.7931C50.4313 20.0045 50.5438 20.2586 50.5438 20.5555C50.5438 20.8524 50.4313 21.1065 50.2064 21.3179C49.986 21.5293 49.7206 21.635 49.4102 21.635ZM53.1094 33.726V23.3623H54.6477V24.9277H54.7557C54.9446 24.4149 55.2864 23.9988 55.7812 23.6794C56.276 23.3601 56.8338 23.2004 57.4545 23.2004C57.5715 23.2004 57.7177 23.2026 57.8931 23.2071C58.0685 23.2116 58.2012 23.2184 58.2912 23.2274V24.8467C58.2372 24.8332 58.1135 24.813 57.9201 24.786C57.7312 24.7545 57.531 24.7387 57.3196 24.7387C56.8158 24.7387 56.366 24.8444 55.9702 25.0559C55.5788 25.2628 55.2685 25.5506 55.0391 25.9195C54.8141 26.2838 54.7017 26.6999 54.7017 27.1677V33.726H53.1094ZM64.2084 33.9419C63.2099 33.9419 62.3485 33.7215 61.6243 33.2806C60.9046 32.8353 60.3491 32.2146 59.9577 31.4184C59.5709 30.6178 59.3775 29.6867 59.3775 28.6251C59.3775 27.5635 59.5709 26.6279 59.9577 25.8183C60.3491 25.0041 60.8933 24.3699 61.5905 23.9156C62.2922 23.4568 63.1109 23.2274 64.0465 23.2274C64.5863 23.2274 65.1193 23.3173 65.6456 23.4973C66.1719 23.6772 66.6509 23.9696 67.0827 24.3744C67.5145 24.7747 67.8587 25.3055 68.115 25.9667C68.3714 26.6279 68.4996 27.4421 68.4996 28.4092V29.0839H60.511V27.7075H66.8803C66.8803 27.1227 66.7634 26.601 66.5295 26.1421C66.3001 25.6833 65.9717 25.3212 65.5444 25.0559C65.1216 24.7905 64.6223 24.6578 64.0465 24.6578C63.4123 24.6578 62.8635 24.8152 62.4002 25.1301C61.9414 25.4404 61.5883 25.8453 61.3409 26.3446C61.0935 26.8438 60.9698 27.3791 60.9698 27.9504V28.868C60.9698 29.6507 61.1047 30.3141 61.3746 30.8584C61.649 31.3982 62.0291 31.8098 62.5149 32.0931C63.0007 32.372 63.5652 32.5115 64.2084 32.5115C64.6268 32.5115 65.0046 32.453 65.342 32.336C65.6838 32.2146 65.9784 32.0347 66.2258 31.7963C66.4732 31.5534 66.6644 31.252 66.7993 30.8921L68.3377 31.324C68.1758 31.8457 67.9036 32.3046 67.5213 32.7004C67.139 33.0917 66.6667 33.3976 66.1044 33.618C65.5421 33.8339 64.9101 33.9419 64.2084 33.9419ZM76.2656 33.726V23.3623H77.804V24.9816H77.9389C78.1548 24.4284 78.5034 23.9988 78.9847 23.6929C79.466 23.3826 80.044 23.2274 80.7187 23.2274C81.4025 23.2274 81.9715 23.3826 82.4258 23.6929C82.8846 23.9988 83.2422 24.4284 83.4986 24.9816H83.6065C83.8719 24.4464 84.27 24.0213 84.8008 23.7064C85.3315 23.3871 85.968 23.2274 86.7102 23.2274C87.6368 23.2274 88.3948 23.5175 88.984 24.0978C89.5733 24.6735 89.8679 25.5709 89.8679 26.7899V33.726H88.2756V26.7899C88.2756 26.0252 88.0664 25.4787 87.6481 25.1503C87.2297 24.822 86.7372 24.6578 86.1704 24.6578C85.4418 24.6578 84.8772 24.8782 84.4769 25.319C84.0766 25.7553 83.8764 26.3086 83.8764 26.9788V33.726H82.2571V26.6279C82.2571 26.0387 82.0659 25.5641 81.6836 25.2043C81.3012 24.8399 80.8087 24.6578 80.206 24.6578C79.7921 24.6578 79.4053 24.768 79.0454 24.9884C78.6901 25.2088 78.4022 25.5147 78.1818 25.906C77.9659 26.2928 77.8579 26.7404 77.8579 27.2487V33.726H76.2656ZM97.1245 33.9419C96.1259 33.9419 95.2645 33.7215 94.5403 33.2806C93.8206 32.8353 93.2651 32.2146 92.8737 31.4184C92.4869 30.6178 92.2935 29.6867 92.2935 28.6251C92.2935 27.5635 92.4869 26.6279 92.8737 25.8183C93.2651 25.0041 93.8094 24.3699 94.5066 23.9156C95.2083 23.4568 96.0269 23.2274 96.9625 23.2274C97.5023 23.2274 98.0353 23.3173 98.5616 23.4973C99.0879 23.6772 99.5669 23.9696 99.9987 24.3744C100.431 24.7747 100.775 25.3055 101.031 25.9667C101.287 26.6279 101.416 27.4421 101.416 28.4092V29.0839H93.427V27.7075H99.7963C99.7963 27.1227 99.6794 26.601 99.4455 26.1421C99.2161 25.6833 98.8877 25.3212 98.4604 25.0559C98.0376 24.7905 97.5383 24.6578 96.9625 24.6578C96.3283 24.6578 95.7795 24.8152 95.3162 25.1301C94.8574 25.4404 94.5043 25.8453 94.2569 26.3446C94.0095 26.8438 93.8858 27.3791 93.8858 27.9504V28.868C93.8858 29.6507 94.0208 30.3141 94.2906 30.8584C94.565 31.3982 94.9451 31.8098 95.4309 32.0931C95.9167 32.372 96.4812 32.5115 97.1245 32.5115C97.5428 32.5115 97.9206 32.453 98.258 32.336C98.5998 32.2146 98.8945 32.0347 99.1419 31.7963C99.3893 31.5534 99.5804 31.252 99.7154 30.8921L101.254 31.324C101.092 31.8457 100.82 32.3046 100.437 32.7004C100.055 33.0917 99.5827 33.3976 99.0204 33.618C98.4581 33.8339 97.8262 33.9419 97.1245 33.9419Z" fill="black"/>
<circle cx="158.615" cy="27.3848" r="27.3848" fill="black"/>
<path d="M173.504 28.1744C174.09 27.5886 174.09 26.6388 173.504 26.053L163.958 16.5071C163.372 15.9213 162.422 15.9213 161.837 16.5071C161.251 17.0929 161.251 18.0426 161.837 18.6284L170.322 27.1137L161.837 35.599C161.251 36.1848 161.251 37.1345 161.837 37.7203C162.422 38.3061 163.372 38.3061 163.958 37.7203L173.504 28.1744ZM144.787 25.6137C143.959 25.6137 143.287 26.2853 143.287 27.1137C143.287 27.9421 143.959 28.6137 144.787 28.6137L144.787 25.6137ZM172.443 25.6137L144.787 25.6137L144.787 28.6137L172.443 28.6137L172.443 25.6137Z" fill="white"/>
</svg>
